<svg width="19" height="20" viewBox="0 0 19 20" fill="none" xmlns="http://www.w3.org/2000/svg">
<path fill-rule="evenodd" clip-rule="evenodd" d="M16.5 5C17.875 5 19 3.875 19 2.5C19 1.125 17.875 0 16.5 0C15.125 0 14 1.125 14 2.5C14 3.875 15.125 5 16.5 5ZM16.5 7.5C15.125 7.5 14 8.625 14 10C14 11.375 15.125 12.5 16.5 12.5C17.875 12.5 19 11.375 19 10C19 8.625 17.875 7.5 16.5 7.5ZM16.5 15C15.125 15 14 16.125 14 17.5C14 18.875 15.125 20 16.5 20C17.875 20 19 18.875 19 17.5C19 16.125 17.875 15 16.5 15Z" fill="#5F6368"/>
<path fill-rule="evenodd" clip-rule="evenodd" d="M9.5 5C10.875 5 12 3.875 12 2.5C12 1.125 10.875 0 9.5 0C8.125 0 7 1.125 7 2.5C7 3.875 8.125 5 9.5 5ZM9.5 7.5C8.125 7.5 7 8.625 7 10C7 11.375 8.125 12.5 9.5 12.5C10.875 12.5 12 11.375 12 10C12 8.625 10.875 7.5 9.5 7.5ZM9.5 15C8.125 15 7 16.125 7 17.5C7 18.875 8.125 20 9.5 20C10.875 20 12 18.875 12 17.5C12 16.125 10.875 15 9.5 15Z" fill="#5F6368"/>
<path fill-rule="evenodd" clip-rule="evenodd" d="M2.5 5C3.875 5 5 3.875 5 2.5C5 1.125 3.875 0 2.5 0C1.125 0 0 1.125 0 2.5C0 3.875 1.125 5 2.5 5ZM2.5 7.5C1.125 7.5 0 8.625 0 10C0 11.375 1.125 12.5 2.5 12.5C3.875 12.5 5 11.375 5 10C5 8.625 3.875 7.5 2.5 7.5ZM2.5 15C1.125 15 0 16.125 0 17.5C0 18.875 1.125 20 2.5 20C3.875 20 5 18.875 5 17.5C5 16.125 3.875 15 2.5 15Z" fill="#5F6368"/>
</svg>
