<svg width="16" height="16" viewBox="0 0 16 16" fill="none" xmlns="http://www.w3.org/2000/svg">
<path fill-rule="evenodd" clip-rule="evenodd" d="M13.8947 4C15.0526 4 16 3.1 16 2C16 0.9 15.0526 0 13.8947 0C12.7368 0 11.7894 0.9 11.7894 2C11.7894 3.1 12.7368 4 13.8947 4ZM13.8947 6C12.7368 6 11.7894 6.9 11.7894 8C11.7894 9.1 12.7368 10 13.8947 10C15.0526 10 16 9.1 16 8C16 6.9 15.0526 6 13.8947 6ZM13.8947 12C12.7368 12 11.7894 12.9 11.7894 14C11.7894 15.1 12.7368 16 13.8947 16C15.0526 16 16 15.1 16 14C16 12.9 15.0526 12 13.8947 12Z" fill="#5F6368"/>
<path fill-rule="evenodd" clip-rule="evenodd" d="M8.00004 4C9.15793 4 10.1053 3.1 10.1053 2C10.1053 0.9 9.15793 0 8.00004 0C6.84214 0 5.89478 0.9 5.89478 2C5.89478 3.1 6.84214 4 8.00004 4ZM8.00004 6C6.84214 6 5.89478 6.9 5.89478 8C5.89478 9.1 6.84214 10 8.00004 10C9.15793 10 10.1053 9.1 10.1053 8C10.1053 6.9 9.15793 6 8.00004 6ZM8.00004 12C6.84214 12 5.89478 12.9 5.89478 14C5.89478 15.1 6.84214 16 8.00004 16C9.15793 16 10.1053 15.1 10.1053 14C10.1053 12.9 9.15793 12 8.00004 12Z" fill="#5F6368"/>
<path fill-rule="evenodd" clip-rule="evenodd" d="M2.10526 4C3.26316 4 4.21053 3.1 4.21053 2C4.21053 0.9 3.26316 0 2.10526 0C0.947368 0 0 0.9 0 2C0 3.1 0.947368 4 2.10526 4ZM2.10526 6C0.947368 6 0 6.9 0 8C0 9.1 0.947368 10 2.10526 10C3.26316 10 4.21053 9.1 4.21053 8C4.21053 6.9 3.26316 6 2.10526 6ZM2.10526 12C0.947368 12 0 12.9 0 14C0 15.1 0.947368 16 2.10526 16C3.26316 16 4.21053 15.1 4.21053 14C4.21053 12.9 3.26316 12 2.10526 12Z" fill="#5F6368"/>
</svg>
